<svg width="32" height="32" viewBox="0 0 32 32" fill="none" xmlns="http://www.w3.org/2000/svg">
<path d="M3.99944 9C3.99944 9.26522 4.1048 9.51957 4.29234 9.70711C4.47987 9.89464 4.73423 10 4.99944 10H21.9994V24.5863L17.7069 20.2925C17.5193 20.1049 17.2648 19.9994 16.9994 19.9994C16.7341 19.9994 16.4796 20.1049 16.2919 20.2925C16.1043 20.4801 15.9989 20.7346 15.9989 21C15.9989 21.2654 16.1043 21.5199 16.2919 21.7075L22.2919 27.7075C22.3848 27.8005 22.4951 27.8742 22.6165 27.9246C22.7379 27.9749 22.868 28.0008 22.9994 28.0008C23.1309 28.0008 23.261 27.9749 23.3824 27.9246C23.5038 27.8742 23.6141 27.8005 23.7069 27.7075L29.7069 21.7075C29.7999 21.6146 29.8736 21.5043 29.9238 21.3829C29.9741 21.2615 30 21.1314 30 21C30 20.8686 29.9741 20.7385 29.9238 20.6171C29.8736 20.4957 29.7999 20.3854 29.7069 20.2925C29.5193 20.1049 29.2648 19.9994 28.9994 19.9994C28.868 19.9994 28.7379 20.0253 28.6165 20.0756C28.4952 20.1259 28.3849 20.1996 28.2919 20.2925L23.9994 24.5863V9C23.9994 8.73478 23.8941 8.48043 23.7066 8.29289C23.519 8.10536 23.2647 8 22.9994 8H4.99944C4.73423 8 4.47987 8.10536 4.29234 8.29289C4.1048 8.48043 3.99944 8.73478 3.99944 9Z" fill="black"/>
</svg>
